<?xml version="1.0" encoding="utf-8"?>
<!-- Generator: Adobe Illustrator 28.1.0, SVG Export Plug-In . SVG Version: 6.00 Build 0)  -->
<svg version="1.1" id="Ebene_1" xmlns="http://www.w3.org/2000/svg" xmlns:xlink="http://www.w3.org/1999/xlink" x="0px" y="0px"
	 viewBox="0 0 134 90" style="enable-background:new 0 0 134 90;" xml:space="preserve">
<style type="text/css">
	.st0{fill:#FFFFFF;}
</style>
<path class="st0" d="M7.4,5.3h11.1v78.1H7.4V5.3z"/>
<path class="st0" d="M64.7,6.5h11.1v50.9H64.7V6.5z"/>
<path class="st0" d="M64.7,6.5h11.1v50.9H64.7V6.5z"/>
<path class="st0" d="M64.7,6.5h11.1v50.9H64.7V6.5z"/>
<path class="st0" d="M133.3,0v2.9H3.8V0H133.3z"/>
<path class="st0" d="M133.3,0v2.9H3.8V0H133.3z"/>
<path class="st0" d="M133.3,0v2.9H3.8V0H133.3z"/>
<path class="st0" d="M133.3,87v2.9H0.9V87H133.3z"/>
<path class="st0" d="M133.3,87v2.9H0.9V87H133.3z"/>
<path class="st0" d="M133.3,87v2.9H0.9V87H133.3z"/>
<path class="st0" d="M133.5,89.9h-2.9V0h2.9V89.9z"/>
<path class="st0" d="M133.5,89.9h-2.9V0h2.9V89.9z"/>
<path class="st0" d="M133.5,89.9h-2.9V0h2.9V89.9z"/>
<path class="st0" d="M0.9,0h2.9l0,87H0.9L0.9,0z"/>
<path class="st0" d="M0.9,0h2.9l0,87H0.9L0.9,0z"/>
<path class="st0" d="M0.9,0h2.9l0,87H0.9L0.9,0z"/>
<path class="st0" d="M127,30.1h-11.1V6.5H127V30.1z"/>
<path class="st0" d="M127,84.6h-11.1V33.8H127V84.6z"/>
<path class="st0" d="M75.7,83.4H64.7V61h11.1V83.4z"/>
<path class="st0" d="M101.2,6.5h11.1v78.1h-11.1V6.5z"/>
<path class="st0" d="M22.1,5.3c5.1,0,10.2,1,14.9,3c4.7,2,9,4.8,12.7,8.5c3.6,3.6,6.5,7.9,8.5,12.7c2,4.7,3,9.8,3,14.9
	c0,5.1-1,10.2-3,14.9c-2,4.7-4.8,9-8.5,12.7c-3.6,3.6-7.9,6.5-12.7,8.5c-4.7,2-9.8,3-14.9,3V5.3z"/>
<path class="st0" d="M97.6,83.4c-2.4,0-4.8-0.5-7-1.4s-4.2-2.3-5.9-4c-1.7-1.7-3-3.7-4-5.9c-0.9-2.2-1.4-4.6-1.4-7
	c0-2.4,0.5-4.8,1.4-7c0.9-2.2,2.3-4.2,4-5.9c1.7-1.7,3.7-3,5.9-4c2.2-0.9,4.6-1.4,7-1.4V83.4z"/>
</svg>
