<svg width="134" height="90" viewBox="0 0 134 90" fill="none" xmlns="http://www.w3.org/2000/svg">
<path d="M7.43785 5.32174H18.5013V83.431H7.43785V5.32174Z" fill="black"/>
<path d="M64.6806 6.5121H75.744V57.3829H64.6806V6.5121Z" fill="black"/>
<path d="M64.6806 6.5121H75.744V57.3829H64.6806V6.5121Z" fill="black"/>
<path d="M64.6806 6.5121H75.744V57.3829H64.6806V6.5121Z" fill="black"/>
<path d="M133.337 3.05176e-05V2.90593H3.83173V3.05176e-05H133.337Z" fill="black"/>
<path d="M133.337 3.05176e-05V2.90593H3.83173V3.05176e-05H133.337Z" fill="black"/>
<path d="M133.337 3.05176e-05V2.90593H3.83173V3.05176e-05H133.337Z" fill="black"/>
<path d="M133.337 87.0371V89.943H0.925812V87.0371H133.337Z" fill="black"/>
<path d="M133.337 87.0371V89.943H0.925812V87.0371H133.337Z" fill="black"/>
<path d="M133.337 87.0371V89.943H0.925812V87.0371H133.337Z" fill="black"/>
<path d="M133.477 89.943H130.571V0H133.477V89.943Z" fill="black"/>
<path d="M133.477 89.943H130.571V0H133.477V89.943Z" fill="black"/>
<path d="M133.477 89.943H130.571V0H133.477V89.943Z" fill="black"/>
<path d="M0.925781 3.05176e-05H3.83173L3.83169 87.0371L0.925812 87.0371L0.925781 3.05176e-05Z" fill="black"/>
<path d="M0.925781 3.05176e-05H3.83173L3.83169 87.0371L0.925812 87.0371L0.925781 3.05176e-05Z" fill="black"/>
<path d="M0.925781 3.05176e-05H3.83173L3.83169 87.0371L0.925812 87.0371L0.925781 3.05176e-05Z" fill="black"/>
<path d="M126.965 30.1444H115.902V6.51202H126.965V30.1444Z" fill="black"/>
<path d="M126.965 84.6214H115.902V33.7506H126.965V84.6214Z" fill="black"/>
<path d="M75.7441 83.431H64.6806V60.989H75.7441V83.431Z" fill="black"/>
<path d="M101.232 6.5121H112.295V84.6214H101.232V6.5121Z" fill="black"/>
<path d="M22.0549 5.32171C27.1836 5.32171 32.2621 6.33189 37.0004 8.29456C41.7388 10.2572 46.0441 13.134 49.6707 16.7606C53.2972 20.3871 56.174 24.6925 58.1367 29.4308C60.0993 34.1691 61.1095 39.2476 61.1095 44.3764C61.1095 49.5051 60.0993 54.5836 58.1367 59.3219C56.174 64.0603 53.2972 68.3656 49.6707 71.9922C46.0441 75.6187 41.7388 78.4955 37.0004 80.4582C32.2621 82.4208 27.1836 83.431 22.0549 83.431L22.0549 5.32171Z" fill="black"/>
<path d="M97.6083 83.431C95.2106 83.431 92.8364 82.9588 90.6212 82.0412C88.406 81.1236 86.3933 79.7787 84.6979 78.0833C83.0024 76.3879 81.6575 74.3751 80.74 72.1599C79.8224 69.9448 79.3502 67.5705 79.3502 65.1728C79.3502 62.7751 79.8224 60.4009 80.74 58.1857C81.6575 55.9706 83.0024 53.9578 84.6979 52.2624C86.3933 50.5669 88.4061 49.222 90.6212 48.3045C92.8364 47.3869 95.2106 46.9147 97.6083 46.9147V83.431Z" fill="black"/>
</svg>
